<?xml version="1.0" encoding="utf-8"?>
<!-- Generator: Avocode 0.4.0 - http://avocode.com -->
<svg height="80" width="58" xmlns:xlink="http://www.w3.org/1999/xlink" xmlns="http://www.w3.org/2000/svg" viewBox="0 0 58 80">
    <path fill="#ffecf3" fill-rule="evenodd" d="M 14.26 27.79 C 11.72 36.49 16.89 60.44 14.2 65 C 11.42 69.71 14.87 65.51 9.87 71.66 C 6.4 75.91 43.64 78.1 43.64 60.68 C 43.64 53.67 43.01 46.9 48.82 43.97 C 54.8 40.96 51.37 28.28 49.85 34.87 C 47.52 35.4 46.65 34.04 46.34 31.86 C 45.77 40.43 44.27 50.55 41.04 56.22 C 38.94 59.93 36.75 60.13 37.75 58.96 C 41 55.16 38.93 53.69 39.79 49.59 C 40.72 45.17 42.78 26.43 40.65 16.81 C 38.71 17.11 36.1 18.16 32.59 20.25 C 28.83 22.49 20.29 29.55 14.26 27.79" />
    <path fill="#ebebeb" fill-rule="evenodd" d="M 38.63 5.68 C 28.76 -4.27 11.75 8.8 8.37 1.9 C 8.37 1.89 7.41 0 7.41 0 C 4.53 7.05 -3.21 11.52 1.47 22.01 C 3.71 27.03 5.94 30.52 10.28 33.75 C 10.28 36.19 10.14 38.89 11.15 41.13 C 11.15 30.24 27.2 35.95 36.46 19.82 C 36.99 18.9 40.2 16.13 41.35 15.89 C 39.96 15.51 38.8 14.94 38.17 13.84 C 35.4 9.03 28.83 14.62 26.22 16.85 C 13.9 27.41 7.95 16.44 9.58 17.08 C 14.24 18.9 17.13 17.67 21.65 15.41 C 24.31 14.08 25.58 12.08 26.97 11.2 C 29.99 9.28 28.17 8.03 28.08 7.11 C 27.72 3.34 35.44 5.03 38.63 5.68 M 46.16 37.38 C 53.54 34.27 54.8 27.38 52.18 17.14 C 50.32 17.85 50.54 18.85 48.85 17.85 C 46.78 16.63 43.78 16.54 41.41 15.9 C 41.43 19.38 46.16 26.04 46.16 37.38" />
    <path fill="#2b2b2b" fill-rule="evenodd" d="M 42.92 16.34 C 42.8 16 42.97 15.64 43.3 15.52 C 43.64 15.41 44 15.58 44.12 15.91 C 44.27 16.35 44.6 16.82 44.89 17.23 L 44.91 17.27 C 45.17 17.63 45.39 17.95 45.5 18.25 C 48.38 26.01 48.45 26.99 48.43 33.48 C 49.47 30.86 50.73 26.38 51.17 22.17 C 51.4 19.97 51.39 17.86 50.99 16.16 C 50.61 14.58 49.9 13.37 48.7 12.82 C 47.8 12.41 46.6 12.35 45.04 12.77 C 44.75 12.84 44.45 12.71 44.31 12.46 C 42.57 9.65 40.61 7.96 38.47 7.01 C 36.32 6.06 33.97 5.84 31.48 5.98 C 30.59 6.03 29.37 6.22 28.01 6.43 C 24.84 6.92 20.92 7.53 17.94 6.83 C 18.07 7.02 18.23 7.18 18.39 7.33 C 19.13 8 20.07 8.37 20.64 8.52 C 20.98 8.61 21.19 8.95 21.1 9.29 C 21.03 9.57 20.79 9.75 20.53 9.77 L 20.53 9.77 C 19.69 9.82 18.97 9.92 18.33 10.05 C 17.71 10.17 17.13 10.34 16.57 10.54 C 14.67 11.22 12.36 11.99 10.14 11.66 C 8.1 11.35 6.21 10.15 4.88 7.21 C 4.72 7.48 4.57 7.75 4.43 8.02 C 2.36 11.96 2.03 15.49 2.91 18.48 C 3.79 21.46 5.9 23.92 8.7 25.73 C 9.18 26.03 9.67 26.32 10.16 26.57 C 10.47 26.74 10.59 27.12 10.43 27.43 L 10.43 27.43 C 9.84 28.56 9.88 30.26 10.19 31.91 C 10.46 33.3 10.91 34.62 11.35 35.54 C 11.43 35.14 11.52 34.72 11.63 34.31 C 11.91 33.26 12.29 32.2 12.73 31.35 C 12.89 31.03 13.27 30.91 13.59 31.07 C 13.9 31.23 14.02 31.62 13.86 31.93 C 13.47 32.7 13.12 33.67 12.86 34.63 C 12.6 35.61 12.45 36.57 12.45 37.27 L 12.44 37.27 C 12.44 37.39 12.41 37.52 12.33 37.64 C 12.12 37.92 11.73 37.99 11.44 37.78 C 10.62 37.2 9.44 34.73 8.94 32.15 C 8.63 30.5 8.57 28.77 9.05 27.42 C 8.69 27.22 8.35 27.01 8.02 26.8 C 4.96 24.83 2.66 22.13 1.69 18.83 C 0.72 15.55 1.07 11.69 3.3 7.43 C 3.65 6.77 4.04 6.11 4.46 5.45 L 4.46 5.45 C 4.54 5.33 4.65 5.24 4.79 5.19 C 5.12 5.08 5.48 5.25 5.6 5.58 C 6.74 8.86 8.47 10.12 10.33 10.39 C 12.25 10.68 14.38 9.97 16.14 9.34 C 16.74 9.13 17.37 8.95 18.08 8.8 L 18.19 8.78 C 17.97 8.63 17.75 8.46 17.54 8.27 C 16.88 7.68 16.35 6.9 16.16 5.91 C 16.14 5.78 16.15 5.65 16.21 5.53 C 16.35 5.21 16.73 5.07 17.05 5.21 C 19.75 6.42 24.27 5.72 27.82 5.17 C 29.19 4.96 30.42 4.77 31.41 4.71 C 34.09 4.56 36.63 4.8 38.99 5.85 C 41.25 6.85 43.33 8.59 45.17 11.43 C 46.83 11.06 48.16 11.18 49.23 11.67 C 50.83 12.4 51.76 13.92 52.23 15.88 C 52.66 17.72 52.67 19.97 52.43 22.3 C 51.8 28.43 49.35 35.23 48.3 36.46 C 48.18 36.61 48 36.71 47.79 36.71 C 47.44 36.71 47.15 36.43 47.15 36.07 L 47.16 34.02 C 47.18 27.24 47.18 26.46 44.31 18.69 C 44.25 18.53 44.07 18.28 43.87 17.99 L 43.85 17.96 C 43.51 17.49 43.13 16.94 42.92 16.34" />
    <path fill="#2b2b2b" fill-rule="evenodd" d="M 13.24 29.38 C 12.91 29.29 12.71 28.94 12.8 28.6 C 12.9 28.26 13.25 28.06 13.59 28.16 C 16.32 28.93 19.27 28.57 21.93 27.43 C 24.76 26.22 27.26 24.14 28.83 21.61 C 30.12 19.53 31.71 17.76 33.63 16.55 C 35.38 15.45 37.38 14.81 39.66 14.81 L 39.96 14.81 C 40.31 14.81 40.6 15.09 40.6 15.45 C 40.6 15.8 40.31 16.08 39.96 16.08 L 39.66 16.08 C 37.64 16.08 35.85 16.65 34.31 17.63 C 32.56 18.73 31.1 20.36 29.91 22.28 C 28.2 25.03 25.5 27.29 22.43 28.6 C 19.52 29.85 16.27 30.24 13.24 29.38" />
    <path fill="#2b2b2b" fill-rule="evenodd" d="M 10.7 36.65 C 10.65 36.3 10.88 35.97 11.23 35.92 C 11.58 35.87 11.9 36.1 11.96 36.45 C 12.2 38.02 12.4 39.6 12.6 41.13 C 13.1 45.06 13.57 48.75 14.63 51.32 C 15.84 54.26 17.53 57.14 19.51 59.12 C 21.12 60.74 22.91 61.76 24.74 61.71 C 26.05 61.67 27.32 61.71 28.55 61.75 C 30.16 61.79 31.73 61.84 33.26 61.71 C 36.36 61.45 39.07 59.2 41.16 56.16 C 43.75 52.37 45.36 47.41 45.59 43.48 C 45.61 43.13 45.91 42.86 46.26 42.88 C 46.41 42.88 46.54 42.94 46.64 43.02 C 47.18 43.44 47.65 43.66 48.07 43.73 C 48.69 43.83 49.21 43.58 49.66 43.1 C 50.17 42.54 50.59 41.7 50.91 40.75 C 51.65 38.57 51.88 35.94 51.77 34.81 C 51.73 34.46 51.99 34.15 52.34 34.12 C 52.69 34.09 53 34.34 53.03 34.69 C 53.15 35.94 52.91 38.81 52.12 41.16 C 51.74 42.26 51.24 43.26 50.59 43.96 C 49.86 44.75 48.96 45.17 47.86 44.99 C 47.52 44.93 47.15 44.81 46.77 44.62 C 46.33 48.55 44.7 53.24 42.21 56.87 C 39.92 60.21 36.9 62.68 33.36 62.98 C 31.79 63.11 30.18 63.07 28.52 63.02 C 27.3 62.98 26.05 62.94 24.78 62.98 C 22.55 63.04 20.45 61.88 18.61 60.02 C 16.51 57.91 14.72 54.88 13.45 51.8 C 12.33 49.08 11.85 45.31 11.34 41.29 C 11.14 39.76 10.94 38.19 10.7 36.65" />
    <path fill="none" fill-rule="evenodd" d="M 57.43 74.08 L 57.43 48.99 L 44.04 48.99 L 44.04 74.08 L 57.43 74.08 L 57.43 74.08 Z M 57.43 74.08" />
    <path fill="#2b2b2b" fill-rule="evenodd" d="M 44.52 49.53 C 44.58 49.18 44.9 48.95 45.25 49 C 45.6 49.06 45.83 49.38 45.78 49.73 C 45.68 50.32 45.6 50.93 45.53 51.54 C 44.99 56.35 45.41 61.32 47.12 65.26 C 48.79 69.12 51.71 71.99 56.19 72.72 C 56.41 72.76 56.63 72.79 56.87 72.81 C 57.22 72.85 57.47 73.17 57.43 73.52 C 57.39 73.86 57.08 74.12 56.73 74.08 C 56.48 74.05 56.23 74.02 55.98 73.98 C 51.02 73.16 47.79 70 45.95 65.76 C 44.15 61.61 43.7 56.41 44.26 51.4 C 44.33 50.78 44.42 50.15 44.52 49.53" />
    <path fill="#2b2b2b" fill-rule="evenodd" d="M 16.09 64.71 C 16.16 64.36 16.5 64.15 16.85 64.22 C 17.19 64.29 17.41 64.63 17.33 64.98 C 16.75 67.67 15.73 69.68 14.46 71.25 C 13.2 72.81 11.69 73.92 10.13 74.79 C 9.82 74.96 9.43 74.85 9.26 74.55 C 9.09 74.24 9.2 73.85 9.51 73.68 C 10.94 72.88 12.32 71.87 13.47 70.45 C 14.62 69.03 15.55 67.18 16.09 64.71" />
    <path fill="#2b2b2b" fill-rule="evenodd" d="M 18.96 23.32 C 19.28 23.19 19.66 23.34 19.79 23.67 C 19.93 23.99 19.77 24.36 19.45 24.5 C 17.38 25.36 15.23 25.31 13.31 24.65 C 11.23 23.94 9.43 22.49 8.34 20.68 C 8.16 20.38 8.26 19.99 8.56 19.81 C 8.86 19.63 9.25 19.72 9.43 20.02 C 10.37 21.58 11.93 22.83 13.72 23.45 C 15.36 24.01 17.21 24.05 18.96 23.32" />
    <path fill="#2b2b2b" fill-rule="evenodd" d="M 13 72.46 C 12.74 72.23 12.73 71.82 12.96 71.57 C 13.2 71.31 13.6 71.29 13.86 71.53 C 17.9 75.27 21.96 77.4 25.93 78.21 C 30.21 79.08 34.4 78.42 38.36 76.57 C 38.68 76.42 39.06 76.56 39.2 76.88 C 39.35 77.2 39.22 77.57 38.9 77.72 C 34.69 79.69 30.24 80.39 25.67 79.46 C 21.48 78.6 17.22 76.37 13 72.46" />
</svg>