<?xml version="1.0" encoding="utf-8"?>
<!-- Generator: Avocode 0.4.0 - http://avocode.com -->
<svg height="75" width="60" xmlns:xlink="http://www.w3.org/1999/xlink" xmlns="http://www.w3.org/2000/svg" viewBox="0 0 60 75">
    <path fill="none" fill-rule="evenodd" d="M 39.68 1 L 0 1 L 0 74.46 L 59.72 74.46 L 59.72 1 L 39.68 1 L 0 1 L 0 60 L 39.68 60 L 39.68 1 L 39.68 1 Z M 39.68 1" />
    <path fill="#ebebeb" fill-rule="evenodd" d="M 16.16 3.57 C -16.25 14.59 8.12 68.72 20.11 58.79 C 20.11 52.59 -4.59 32.24 23.25 24.18 C 23.79 24.02 33.5 18.43 23.15 19.46 C 10.93 20.67 24.76 7.14 37.02 4.23 C 45.85 2.13 31.05 -1.49 16.16 3.57" />
    <path fill="#ebebeb" fill-rule="evenodd" d="M 50.8 22.35 C 59.14 23.93 50.99 49.28 42.57 52.91 C 37.02 55.3 55.48 38.74 47.15 23.06 C 46.59 22 49.04 22.02 50.8 22.35" />
    <path fill="none" fill-rule="evenodd" d="M 59.72 74.46 L 59.72 18.26 L 12.48 18.26 L 12.48 74.46 L 59.72 74.46 L 59.72 74.46 Z M 59.72 74.46" />
    <path fill="#ffecf3" fill-rule="evenodd" d="M 57.61 67.55 C 54.08 64.1 36.19 60.38 46.07 43.54 C 49.79 37.21 50.38 11.78 37.96 19.81 C 33.96 22.4 25.88 23.21 18.78 27.42 L 18.52 27.53 C 10.32 39.57 32.87 54.09 14.28 62.43 C 5.48 66.38 31.59 73.48 35.65 73.64 C 36.68 73.67 68.01 77.71 57.61 67.55" />
    <path fill="#2b2b2b" fill-rule="evenodd" d="M 47.7 40.66 C 47.43 41.67 47.09 42.72 46.7 43.75 C 46.32 44.72 45.9 45.67 45.43 46.55 C 44.47 48.37 43.28 50.06 41.52 51.53 C 39.77 52.98 37.46 54.19 34.26 55.03 C 33.92 55.12 33.57 54.92 33.49 54.58 C 33.4 54.24 33.6 53.89 33.94 53.8 C 36.95 53.01 39.1 51.89 40.71 50.55 C 42.31 49.22 43.41 47.65 44.3 45.95 C 44.76 45.09 45.16 44.19 45.51 43.29 C 45.88 42.32 46.2 41.32 46.47 40.33 C 46.7 39.45 46.88 38.22 47 36.48 C 47.14 34.69 47.22 32.4 47.25 29.46 C 47.26 29.11 47.54 28.83 47.89 28.83" />
    <path fill="#2b2b2b" fill-rule="evenodd" d="M 52.49 65.32 C 48.93 64.64 45.47 63.98 43.44 61.37 C 42.25 59.85 41.64 58.02 41.33 56.15 C 41.02 54.31 41 52.44 41 50.77 C 41 50.42 41.28 50.13 41.64 50.13 C 41.99 50.13 42.27 50.42 42.27 50.77 C 42.27 52.4 42.29 54.21 42.58 55.94 C 42.87 57.63 43.41 59.26 44.44 60.59 C 46.18 62.82 49.41 63.44 52.72 64.07" />
    <path fill="#2b2b2b" fill-rule="evenodd" d="M 15.85 35.32 C 15.85 34.97 16.14 34.68 16.49 34.68 C 16.84 34.68 17.13 34.97 17.13 35.32 C 17.13 39.38 17.77 42.32 19.08 44.88 C 20.4 47.46 22.43 49.69 25.18 52.33 C 25.31 52.45 25.38 52.62 25.38 52.79 L 25.38 52.79 C 25.38 54.09 25.11 55.82 24.56 57.49 C 24.09 58.91 23.42 60.31 22.53 61.41 C 20.47 63.97 17.05 64.65 13.54 65.34 C 10.52 65.94 7.44 66.56 5.36 68.42 C 5.1 68.66 4.7 68.64 4.46 68.37 C 4.23 68.11 4.25 67.71 4.51 67.47 C 6.85 65.38 10.11 64.73 13.3 64.09 C 16.57 63.44 19.77 62.81 21.54 60.61 C 22.32 59.65 22.92 58.39 23.35 57.09 C 23.82 55.66 24.07 54.2 24.1 53.05 C 21.36 50.41 19.32 48.13 17.95 45.46 C 16.54 42.71 15.85 39.59 15.85 35.32" />
    <path fill="#2b2b2b" fill-rule="evenodd" d="M 44.38 10.89 C 44.54 10.57 44.93 10.45 45.24 10.61 C 45.55 10.77 45.68 11.16 45.51 11.47 C 41.09 20 31.57 23.49 23.76 26.36 C 20.64 27.5 17.8 28.54 15.73 29.75 C 12.57 31.58 11.2 33.87 13.46 37.75 C 13.63 38.06 13.53 38.44 13.22 38.62 C 12.92 38.8 12.53 38.69 12.35 38.39 C 9.6 33.65 11.26 30.87 15.09 28.65 C 17.27 27.38 20.15 26.32 23.32 25.16 C 30.92 22.37 40.19 18.98 44.38 10.89" />
    <path fill="#2b2b2b" fill-rule="evenodd" d="M 45.81 10.63 C 45.75 10.97 45.41 11.2 45.07 11.13 C 44.72 11.07 44.5 10.73 44.56 10.39 C 44.94 8.44 43.92 6.8 42 5.6 C 40.36 4.57 38.08 3.85 35.42 3.49 C 32.73 3.13 29.67 3.15 26.52 3.61 C 17.01 4.99 6.68 10.37 3.08 21.37 C 2.96 21.74 2.85 22.09 2.76 22.44 C 0.87 29.25 1.98 36.72 5.4 43.09 C 8.81 49.46 14.54 54.73 21.88 57.13 C 22.29 57.27 22.7 57.39 23.1 57.5 C 23.44 57.6 23.64 57.95 23.55 58.28 C 23.45 58.62 23.1 58.82 22.76 58.73 C 22.32 58.61 21.9 58.48 21.49 58.34 C 13.82 55.84 7.84 50.34 4.28 43.69 C 0.71 37.04 -0.44 29.23 1.53 22.1 C 1.64 21.71 1.75 21.34 1.87 20.98 C 5.65 9.42 16.43 3.79 26.34 2.35 C 29.61 1.88 32.78 1.86 35.58 2.23 C 38.42 2.61 40.88 3.39 42.67 4.52 C 45.05 6.01 46.3 8.09 45.81 10.63" />
    <path fill="#2b2b2b" fill-rule="evenodd" d="M 54.97 16 C 52.78 12.87 49.65 10.82 45.55 10.66 C 45.2 10.65 44.92 10.35 44.94 10 C 44.95 9.65 45.25 9.38 45.6 9.39 C 50.14 9.57 53.6 11.82 56.01 15.27" />
    <path fill="#2b2b2b" fill-rule="evenodd" d="M 58.79 40.52 C 56.81 47.65 52.64 53.83 46.4 56.18 C 46.07 56.3 45.71 56.14 45.58 55.81 C 45.46 55.48 45.63 55.11 45.95 54.99 C 51.77 52.8 55.68 46.95 57.56 40.18" />
    <path fill="#2b2b2b" fill-rule="evenodd" d="M 48.84 27.38 C 46.46 23.97 43.88 20.27 44.66 16.15 C 44.73 15.8 45.06 15.58 45.4 15.64 C 45.75 15.71 45.98 16.04 45.91 16.38 C 45.23 19.98 47.66 23.45 49.88 26.65" />
</svg>