<svg id="SvgjsSvg1008" xmlns="http://www.w3.org/2000/svg" version="1.1" xmlns:xlink="http://www.w3.org/1999/xlink" xmlns:svgjs="http://svgjs.com/svgjs" width="19" height="19"><defs id="SvgjsDefs1009"></defs><path id="SvgjsPath1010" d="M1259.83 626.69C1259.99 626.5300000000001 1259.99 626.2700000000001 1259.83 626.12C1259.6699999999998 625.96 1259.4099999999999 625.96 1259.26 626.12L1250.47 634.9L1241.69 626.12C1241.53 625.96 1241.28 625.96 1241.1200000000001 626.12C1240.96 626.28 1240.96 626.53 1241.1200000000001 626.69L1249.9 635.47L1241.1200000000001 644.25C1240.96 644.4 1240.96 644.66 1241.1200000000001 644.82C1241.2 644.9000000000001 1241.3000000000002 644.9300000000001 1241.41 644.9300000000001C1241.51 644.9300000000001 1241.6100000000001 644.8900000000001 1241.69 644.82L1250.47 636.0400000000001L1259.26 644.82C1259.33 644.8900000000001 1259.44 644.9300000000001 1259.54 644.9300000000001C1259.6499999999999 644.9300000000001 1259.75 644.8900000000001 1259.83 644.82C1259.99 644.6600000000001 1259.99 644.4000000000001 1259.83 644.25L1251.05 635.47Z " fill="#979797" fill-opacity="1" transform="matrix(1,0,0,1,-1241,-626)"></path></svg>