<?xml version="1.0" encoding="utf-8"?>
<!-- Generator: Avocode 0.4.0 - http://avocode.com -->
<svg height="39" width="137" xmlns:xlink="http://www.w3.org/1999/xlink" xmlns="http://www.w3.org/2000/svg" viewBox="0 0 137 39">
    <path fill="#ee498d" fill-rule="evenodd" d="M 135.06 20.92 C 135.06 19.12 134.61 17.77 133.7 16.86 C 132.8 15.95 131.46 15.5 129.69 15.5 L 127.36 15.5 L 127.36 26.49 L 129.31 26.49 C 131.22 26.49 132.65 26.02 133.62 25.08 C 134.57 24.15 135.06 22.76 135.06 20.92 L 135.06 20.92 Z M 136.75 20.86 C 136.75 23.14 136.13 24.88 134.9 26.08 C 133.67 27.28 131.89 27.88 129.58 27.88 L 125.76 27.88 L 125.76 14.11 L 129.98 14.11 C 132.12 14.11 133.78 14.7 134.97 15.89 C 136.16 17.08 136.75 18.74 136.75 20.86 L 136.75 20.86 Z M 115.45 20.78 L 117.64 20.78 C 118.77 20.78 119.6 20.56 120.12 20.11 C 120.65 19.66 120.91 18.99 120.91 18.09 C 120.91 17.18 120.65 16.52 120.11 16.12 C 119.57 15.72 118.71 15.52 117.52 15.52 L 115.45 15.52 L 115.45 20.78 Z M 115.45 22.15 L 115.45 27.88 L 113.85 27.88 L 113.85 14.11 L 117.62 14.11 C 119.31 14.11 120.55 14.43 121.36 15.08 C 122.16 15.72 122.57 16.7 122.57 18 C 122.57 19.82 121.65 21.05 119.8 21.7 L 123.54 27.88 L 121.65 27.88 L 118.31 22.15 L 115.45 22.15 Z M 108.47 27.88 L 110.07 27.88 L 110.07 14.11 L 108.47 14.11 L 108.47 27.88 Z M 97.57 21.36 L 97.57 26.51 L 100.45 26.51 C 101.56 26.51 102.4 26.3 102.95 25.87 C 103.52 25.44 103.8 24.76 103.8 23.85 C 103.8 22.99 103.51 22.37 102.94 21.96 C 102.36 21.56 101.49 21.36 100.32 21.36 L 97.57 21.36 Z M 97.57 20.01 L 100.21 20.01 C 101.34 20.01 102.15 19.83 102.65 19.48 C 103.15 19.12 103.4 18.52 103.4 17.68 C 103.4 16.91 103.12 16.35 102.57 16.01 C 102.01 15.67 101.14 15.5 99.93 15.5 L 97.57 15.5 L 97.57 20.01 Z M 95.97 14.11 L 99.86 14.11 C 101.69 14.11 103.01 14.38 103.83 14.93 C 104.64 15.48 105.05 16.34 105.05 17.52 C 105.05 18.34 104.83 19.01 104.37 19.54 C 103.92 20.07 103.25 20.41 102.38 20.57 L 102.38 20.67 C 104.47 21.02 105.51 22.12 105.51 23.96 C 105.51 25.19 105.1 26.16 104.27 26.85 C 103.43 27.54 102.27 27.88 100.78 27.88 L 95.97 27.88 L 95.97 14.11 Z M 95.97 14.11" />
    <path fill="none" fill-rule="evenodd" d="M 30.24 38.84 L 0 38.84 L 0 0.29 L 30.24 0.29 L 30.24 38.84 L 30.24 38.84 Z M 30.24 38.84" />
    <path fill="#010201" fill-rule="evenodd" d="M 15.12 2.24 C 15.47 2.24 15.75 2.53 15.75 2.88 C 15.75 3.23 15.47 3.51 15.12 3.51 C 14.77 3.51 14.49 3.23 14.49 2.88 C 14.49 2.53 14.77 2.24 15.12 2.24 L 15.12 2.24 Z M 21.77 17.73 C 22.28 17.73 22.68 18.11 22.68 18.59 C 22.68 19.06 22.28 19.44 21.77 19.44 C 21.27 19.44 20.87 19.06 20.87 18.59 C 20.87 18.11 21.27 17.73 21.77 17.73 L 21.77 17.73 Z M 15.58 38.84 L 14.66 38.84 L 14.66 36.09 C 14.97 36.09 15.27 36.08 15.58 36.06 L 15.58 38.84 Z M 17.37 0.92 L 17.37 6.73 L 17.35 6.73 L 17.28 6.72 L 17.22 6.71 L 17.2 6.71 L 17.13 6.71 L 17.05 6.7 L 17.02 6.7 L 16.97 6.69 L 16.89 6.69 L 16.81 6.68 L 16.81 6.68 L 16.73 6.68 L 16.66 6.67 L 16.61 6.67 L 16.58 6.67 L 16.42 6.66 L 16.4 6.66 L 16.34 6.65 L 16.26 6.65 L 16.19 6.65 L 16.18 6.65 L 16.1 6.64 L 16.02 6.64 L 15.98 6.64 L 15.94 6.64 L 15.86 6.63 L 15.82 6.63 L 15.82 8.91 C 23.85 9.28 30.24 15.9 30.24 24.02 C 30.24 30.01 26.76 35.18 21.71 37.64 L 21.71 37.88 C 21.71 38.41 21.29 38.84 20.76 38.84 L 16.56 38.84 L 16.56 35.95 C 24 34.86 26.96 28.93 26.54 21.92 L 28.6 20.31 L 26.19 19.48 C 25.39 16.16 22.33 14.72 19.68 15.24 C 16.95 15.78 14.89 18.2 15.07 21.51 C 15.56 30.71 12.93 33.57 6.62 32.98 C 8.56 34.92 11.11 35.88 13.68 36.06 L 13.68 38.84 L 9.48 38.84 C 8.95 38.84 8.52 38.41 8.52 37.88 L 8.52 37.64 C 3.48 35.18 0 30.01 0 24.02 C 0 15.9 6.39 9.28 14.42 8.91 L 14.42 6.63 L 14.38 6.63 L 14.3 6.64 L 14.26 6.64 L 14.22 6.64 L 14.14 6.64 L 14.06 6.65 L 14.05 6.65 L 13.98 6.65 L 13.9 6.65 L 13.84 6.66 L 13.82 6.66 L 13.66 6.67 L 13.63 6.67 L 13.58 6.67 L 13.5 6.68 L 13.42 6.68 L 13.35 6.69 L 13.27 6.69 L 13.22 6.7 L 13.19 6.7 L 13.11 6.71 L 13.04 6.71 L 13.02 6.71 L 12.96 6.72 L 12.89 6.73 L 12.87 6.73 L 12.87 0.92 C 12.87 0.57 13.88 0.29 15.12 0.29 C 16.36 0.29 17.37 0.57 17.37 0.92 L 17.37 0.92 Z M 17.37 0.92" />
    <path fill="#010201" fill-rule="evenodd" d="M 58.66 33.67 C 59.17 33.67 59.58 34.08 59.58 34.59 C 59.58 35.1 59.17 35.52 58.66 35.52 C 58.15 35.52 57.73 35.1 57.73 34.59 C 57.73 34.08 58.15 33.67 58.66 33.67" />
    <path fill="#010201" fill-rule="evenodd" d="M 116.09 33.67 C 116.6 33.67 117.01 34.08 117.01 34.59 C 117.01 35.1 116.6 35.52 116.09 35.52 C 115.58 35.52 115.16 35.1 115.16 34.59 C 115.16 34.08 115.58 33.67 116.09 33.67" />
    <path fill="#010201" fill-rule="evenodd" d="M 112.04 36.71 L 111.68 36.71 L 110.05 34.48 L 109.49 34.97 L 109.49 36.71 L 109.2 36.71 L 109.2 32.48 L 109.49 32.48 L 109.49 34.68 L 109.96 34.21 L 111.62 32.48 L 111.99 32.48 L 110.26 34.27 L 112.04 36.71 Z M 102.48 34.61 L 103.28 34.61 C 103.64 34.61 103.92 34.53 104.12 34.37 C 104.31 34.21 104.41 33.98 104.41 33.67 C 104.41 33.34 104.32 33.11 104.12 32.96 C 103.93 32.81 103.61 32.74 103.18 32.74 L 102.48 32.74 L 102.48 34.61 Z M 102.48 34.87 L 102.48 36.71 L 102.19 36.71 L 102.19 32.48 L 103.19 32.48 C 103.72 32.48 104.1 32.58 104.35 32.77 C 104.6 32.97 104.73 33.26 104.73 33.65 C 104.73 33.93 104.65 34.17 104.5 34.36 C 104.36 34.56 104.13 34.7 103.82 34.78 L 104.97 36.71 L 104.62 36.71 L 103.53 34.87 L 102.48 34.87 Z M 94.26 34.59 C 94.26 35.19 94.4 35.66 94.67 35.99 C 94.94 36.32 95.32 36.49 95.83 36.49 C 96.34 36.49 96.73 36.33 96.99 36 C 97.26 35.67 97.4 35.2 97.4 34.59 C 97.4 33.98 97.26 33.51 96.99 33.19 C 96.73 32.86 96.34 32.7 95.83 32.7 C 95.33 32.7 94.94 32.86 94.67 33.19 C 94.4 33.52 94.26 33.99 94.26 34.59 L 94.26 34.59 Z M 97.72 34.59 C 97.72 35.26 97.55 35.79 97.22 36.18 C 96.88 36.57 96.42 36.77 95.83 36.77 C 95.24 36.77 94.78 36.57 94.44 36.18 C 94.11 35.79 93.94 35.26 93.94 34.58 C 93.94 33.91 94.11 33.38 94.45 32.99 C 94.79 32.61 95.25 32.42 95.83 32.42 C 96.42 32.42 96.89 32.61 97.22 33 C 97.55 33.39 97.72 33.92 97.72 34.59 L 97.72 34.59 Z M 80.6 36.71 L 80.36 36.71 L 79.43 33.45 C 79.35 33.18 79.29 32.96 79.26 32.79 C 79.23 32.95 79.18 33.15 79.12 33.37 C 79.07 33.58 78.76 34.7 78.19 36.71 L 77.94 36.71 L 76.78 32.48 L 77.09 32.48 L 77.83 35.21 C 77.86 35.32 77.89 35.42 77.91 35.51 C 77.94 35.6 77.96 35.69 77.98 35.77 C 78 35.86 78.02 35.94 78.03 36.01 C 78.05 36.09 78.07 36.17 78.08 36.24 C 78.13 35.98 78.22 35.58 78.37 35.05 L 79.1 32.48 L 79.42 32.48 L 80.27 35.42 C 80.37 35.77 80.44 36.04 80.48 36.25 C 80.51 36.11 80.54 35.96 80.58 35.81 C 80.62 35.65 80.92 34.54 81.47 32.48 L 81.77 32.48 L 80.6 36.71 Z M 72.78 36.71 L 70.47 36.71 L 70.47 32.48 L 72.78 32.48 L 72.78 32.75 L 70.77 32.75 L 70.77 34.35 L 72.67 34.35 L 72.67 34.63 L 70.77 34.63 L 70.77 36.43 L 72.78 36.43 L 72.78 36.71 Z M 88.52 34.79 L 89.76 32.48 L 90.08 32.48 L 88.67 35.07 L 88.67 36.71 L 88.36 36.71 L 88.36 35.1 L 86.95 32.48 L 87.29 32.48 L 88.52 34.79 Z M 65.78 36.71 L 65.48 36.71 L 62.98 32.95 L 62.96 32.95 C 62.98 33.4 62.99 33.74 62.99 33.97 L 62.99 36.71 L 62.71 36.71 L 62.71 32.48 L 63 32.48 L 65.5 36.23 L 65.52 36.23 C 65.5 35.88 65.49 35.55 65.49 35.24 L 65.49 32.48 L 65.78 32.48 L 65.78 36.71 Z M 65.78 36.71" />
    <path fill="#010201" fill-rule="evenodd" d="M 89.52 27.88 L 88.55 27.88 L 88.55 15.02 L 84.07 15.02 L 84.07 14.11 L 93.99 14.11 L 93.99 15.02 L 89.52 15.02 L 89.52 27.88 Z M 82.03 27.88 L 81.06 27.88 L 72.91 15.65 L 72.83 15.65 C 72.91 17.11 72.94 18.21 72.94 18.95 L 72.94 27.88 L 72.02 27.88 L 72.02 14.11 L 72.98 14.11 L 81.12 26.32 L 81.18 26.32 C 81.12 25.19 81.1 24.11 81.1 23.09 L 81.1 14.11 L 82.03 14.11 L 82.03 27.88 Z M 68.91 27.88 L 61.38 27.88 L 61.38 14.11 L 68.91 14.11 L 68.91 15 L 62.35 15 L 62.35 20.21 L 68.54 20.21 L 68.54 21.09 L 62.35 21.09 L 62.35 27 L 68.91 27 L 68.91 27.88 Z M 55.28 14.76 C 53.55 14.76 52.2 15.32 51.2 16.42 C 50.21 17.53 49.72 19.05 49.72 20.97 C 49.72 22.94 50.19 24.47 51.12 25.56 C 52.06 26.64 53.39 27.19 55.13 27.19 C 56.28 27.19 57.35 27.04 58.31 26.74 L 58.31 27.59 C 57.4 27.91 56.27 28.07 54.9 28.07 C 52.97 28.07 51.45 27.45 50.34 26.2 C 49.23 24.95 48.67 23.2 48.67 20.96 C 48.67 19.56 48.94 18.33 49.47 17.26 C 50 16.19 50.76 15.37 51.75 14.79 C 52.75 14.2 53.91 13.92 55.23 13.92 C 56.57 13.92 57.77 14.16 58.83 14.65 L 58.44 15.52 C 57.44 15.02 56.39 14.76 55.28 14.76 L 55.28 14.76 Z M 46.5 24.34 C 46.5 25.48 46.08 26.4 45.23 27.06 C 44.39 27.74 43.27 28.07 41.87 28.07 C 40.18 28.07 38.89 27.89 37.99 27.52 L 37.99 26.55 C 38.99 26.98 40.25 27.19 41.79 27.19 C 42.92 27.19 43.81 26.92 44.48 26.41 C 45.14 25.89 45.47 25.21 45.47 24.37 C 45.47 23.85 45.36 23.42 45.14 23.08 C 44.92 22.74 44.56 22.42 44.07 22.14 C 43.57 21.86 42.84 21.55 41.88 21.23 C 40.48 20.74 39.51 20.22 38.97 19.66 C 38.44 19.1 38.17 18.34 38.17 17.41 C 38.17 16.38 38.57 15.54 39.38 14.89 C 40.18 14.24 41.22 13.92 42.49 13.92 C 43.78 13.92 44.99 14.16 46.13 14.65 L 45.78 15.48 C 44.64 15 43.55 14.76 42.51 14.76 C 41.49 14.76 40.68 15 40.08 15.47 C 39.47 15.94 39.17 16.58 39.17 17.39 C 39.17 17.9 39.27 18.32 39.45 18.64 C 39.64 18.97 39.94 19.26 40.36 19.52 C 40.78 19.79 41.5 20.1 42.52 20.46 C 43.6 20.83 44.41 21.2 44.94 21.54 C 45.48 21.89 45.88 22.28 46.13 22.73 C 46.37 23.17 46.5 23.71 46.5 24.34 L 46.5 24.34 Z M 46.5 24.34" />
</svg>